<?xml version="1.0" encoding="UTF-8" standalone="no"?>
<svg
   xmlns:dc="http://purl.org/dc/elements/1.1/"
   xmlns:cc="http://creativecommons.org/ns#"
   xmlns:rdf="http://www.w3.org/1999/02/22-rdf-syntax-ns#"
   xmlns:svg="http://www.w3.org/2000/svg"
   xmlns="http://www.w3.org/2000/svg"
   xmlns:sodipodi="http://sodipodi.sourceforge.net/DTD/sodipodi-0.dtd"
   xmlns:inkscape="http://www.inkscape.org/namespaces/inkscape"
   width="32"
   height="32"
   version="1.1"
   viewBox="0 0 32 32"
   id="svg12"
   sodipodi:docname="favicon.svg"
   inkscape:version="0.92.4 5da689c313, 2019-01-14">
  <defs
     id="defs16" />
  <sodipodi:namedview
     pagecolor="#ffffff"
     bordercolor="#666666"
     borderopacity="1"
     objecttolerance="10"
     gridtolerance="10"
     guidetolerance="10"
     inkscape:pageopacity="0"
     inkscape:pageshadow="2"
     inkscape:window-width="1920"
     inkscape:window-height="1004"
     id="namedview14"
     showgrid="false"
     inkscape:zoom="9.8333333"
     inkscape:cx="25.978633"
     inkscape:cy="22.192009"
     inkscape:window-x="0"
     inkscape:window-y="0"
     inkscape:window-maximized="1"
     inkscape:current-layer="svg12" />
  <metadata
     id="metadata2">
    <rdf:RDF>
      <cc:Work
         rdf:about="">
        <dc:format>image/svg+xml</dc:format>
        <dc:type
           rdf:resource="http://purl.org/dc/dcmitype/StillImage" />
        <dc:title></dc:title>
      </cc:Work>
    </rdf:RDF>
  </metadata>
  <g
     id="g10"
     transform="scale(1.3333333)">
    <rect
       transform="rotate(90)"
       x="18"
       y="-13.333"
       width="6"
       height="2.6666999"
       style="fill:#999999;paint-order:stroke markers fill"
       id="rect4" />
    <path
       d="m 12,6.6667 a 5.3333,5.3333 0 0 0 -5.1563,4 H 4 v 2.6667 h 2.8333 a 5.3333,5.3333 0 0 0 5.1667,4 5.3333,5.3333 0 0 0 5.1562,-4 H 20 V 10.6667 H 17.1562 A 5.3333,5.3333 0 0 0 12,6.6667 Z M 11.81248,9.3334 A 2.6667,2.6667 0 0 1 12,9.3334 2.6667,2.6667 0 0 1 14.6667,12.0001 2.6667,2.6667 0 0 1 12,14.6668 2.6667,2.6667 0 0 1 9.3333,12.0001 2.6667,2.6667 0 0 1 11.8125,9.3334 Z"
       style="fill:#cccccc;paint-order:stroke markers fill"
       id="path6"
       inkscape:connector-curvature="0" />
    <rect
       transform="rotate(90)"
       x="-7.1746999e-17"
       y="-13.333"
       width="6"
       height="2.6666999"
       style="fill:#999999;paint-order:stroke markers fill"
       id="rect8" />
  </g>
</svg>
